<?xml version="1.0" encoding="UTF-8" standalone="no"?>
<svg
   width="192"
   height="192"
   viewBox="0 0 192 192"
   fill="none"
   version="1.1"
   id="svg31"
   sodipodi:docname="StartPage.svg"
   inkscape:version="1.1.2 (b8e25be833, 2022-02-05)"
   xmlns:inkscape="http://www.inkscape.org/namespaces/inkscape"
   xmlns:sodipodi="http://sodipodi.sourceforge.net/DTD/sodipodi-0.dtd"
   xmlns="http://www.w3.org/2000/svg"
   xmlns:svg="http://www.w3.org/2000/svg">
  <sodipodi:namedview
     id="namedview33"
     pagecolor="#ffffff"
     bordercolor="#666666"
     borderopacity="1.0"
     inkscape:pageshadow="2"
     inkscape:pageopacity="0.0"
     inkscape:pagecheckerboard="0"
     showgrid="false"
     inkscape:zoom="4"
     inkscape:cx="-47.25"
     inkscape:cy="129.75"
     inkscape:window-width="3840"
     inkscape:window-height="2054"
     inkscape:window-x="-11"
     inkscape:window-y="-11"
     inkscape:window-maximized="1"
     inkscape:current-layer="svg31" />
  <g
     id="g35687">
    <ellipse
       style="fill:#ffffff;stroke-width:0.991962"
       id="path864"
       ry="90.088898"
       rx="90.282425"
       cy="95.42926"
       cx="96.310135" />
    <ellipse
       style="opacity:0.903;fill:#ffffff;fill-opacity:1;fill-rule:nonzero;stroke:#000000;stroke-width:5.842;stroke-miterlimit:4;stroke-dasharray:none;stroke-dashoffset:0;stroke-opacity:0.245342"
       id="path28283"
       ry="88.833664"
       rx="88.887909"
       cy="95.592514"
       cx="96.529564" />
    <ellipse
       style="opacity:1;fill:#458f67;fill-opacity:1;fill-rule:nonzero;stroke:#fffff9;stroke-width:11.8503;stroke-miterlimit:4;stroke-dasharray:none;stroke-dashoffset:0;stroke-opacity:1"
       id="path28283-7"
       ry="83.002251"
       rx="82.776001"
       cy="95.83213"
       cx="96.52285" />
    <path
       style="fill:#ffffff;stroke:#fdffff;stroke-width:30;stroke-linecap:butt;stroke-linejoin:miter;stroke-miterlimit:4;stroke-dasharray:none;stroke-opacity:1"
       d="m 106.81291,109.37609 47.68776,43.66415"
       id="path31609" />
    <path
       id="path28283-7-5"
       style="opacity:1;fill:#458f67;fill-opacity:1;fill-rule:nonzero;stroke:#fffff9;stroke-width:24.021;stroke-miterlimit:4;stroke-dasharray:none;stroke-dashoffset:0;stroke-opacity:1"
       d="M 92.997249,19.418301 C 71.333072,21.348373 51.494258,29.991834 38.289081,45.543083 27.917358,57.757478 21.910969,74.917436 20.483455,91.814863 29.409908,111.3613 49.092486,123.9284 70.790795,123.93553 101.28583,123.93602 126.00696,99.502955 126.00608,69.363646 125.99912,47.718478 113.04871,28.123334 92.997249,19.418301 Z"
       sodipodi:nodetypes="cscccc" />
  </g>
  <path
     d="m 129.66969,151.65694 8.0226,16.449 c 5.62816,11.53944 20.17462,16.00354 32.52272,9.98139 12.34773,-6.02257 17.78539,-20.23393 12.15749,-31.77341 l -12.34256,-25.30579 c -0.85176,-1.74613 -3.05928,-2.42362 -4.92764,-1.51234 -1.86835,0.91129 -2.69386,3.06802 -1.8421,4.81415 l 7.71404,15.81609 -2.70807,1.32073 -11.41659,-23.40787 c -0.85164,-1.74608 -3.05924,-2.42362 -4.92769,-1.51229 -1.86845,0.91128 -2.69365,3.06801 -1.84202,4.8141 l 10.18251,20.87729 -2.7079,1.32072 -12.03387,-24.67315 c -0.85163,-1.74609 -3.05924,-2.42362 -4.92769,-1.51234 -1.8684,0.91133 -2.69365,3.06806 -1.84202,4.81415 l 12.03392,24.67315 -2.7079,1.32072 -9.56541,-19.612 c -0.85163,-1.74609 -3.05923,-2.42362 -4.92764,-1.51234 -1.86845,0.91133 -2.69369,3.06806 -1.84206,4.81415 l 13.30519,27.27978 c 5.64305,-1.96951 11.85965,0.26125 14.37753,5.42389 l -2.7079,1.32046 c -2.03648,-4.17531 -7.35837,-5.80866 -11.82639,-3.62955 l -1.3539,0.66065 -7.09694,-14.55102 c -0.85163,-1.74613 -3.05924,-2.42362 -4.92764,-1.51233 -1.86845,0.91128 -2.6937,3.06788 -1.84207,4.81401 z"
     fill="url(#paint1_linear_6:10)"
     id="path6"
     style="fill:#26bd6b;stroke-width:0.430399;fill-opacity:1" />
  <circle
     cx="158.71045"
     cy="154.66199"
     r="19.367964"
     fill="#124320"
     id="circle8"
     style="stroke-width:0.430399" />
  <path
     d="m 154.50067,153.04024 c 2.14855,0.3581 4.11806,0.53714 5.90852,0.53714 1.79051,0 2.93365,-0.0137 3.42947,-0.0413 -0.0551,-2.09346 -0.0826,-4.1043 -0.0826,-6.03248 0,-1.92819 0,-3.2366 0,-3.92524 0,-0.68864 0.0275,-1.11559 0.0826,-1.28087 0.0551,-0.19282 0.23413,-0.37186 0.53713,-0.53714 0.30299,-0.16527 0.74373,-0.2479 1.32218,-0.2479 0.82637,0 1.23955,0.49581 1.23955,1.48745 v 14.62669 c 0,3.03002 -0.0689,6.36302 -0.20659,9.99904 -0.0275,0.79882 -0.70241,1.19823 -2.02459,1.19823 -0.66111,0 -0.99163,-0.39941 -0.99163,-1.19823 l 0.16527,-10.94936 c -0.88146,0.055 -2.09346,0.0826 -3.63606,0.0826 -1.515,0 -3.42942,-0.16528 -5.74325,-0.49582 0,3.63601 0.16527,7.43729 0.49582,11.40386 0.0276,0.44073 -0.16527,0.78505 -0.57846,1.03295 -0.41318,0.22037 -0.93654,0.33055 -1.57009,0.33055 -0.606,0 -0.93655,-0.31678 -0.99164,-0.95032 -0.35809,-3.91147 -0.53714,-7.76785 -0.53714,-11.56914 l 0.24791,-12.89131 c 0,-0.55091 0.20659,-0.95032 0.61977,-1.19823 0.41319,-0.27546 0.85392,-0.41319 1.32219,-0.41319 0.77128,0 1.15691,0.37187 1.15691,1.1156 z"
     fill="url(#paint2_diamond_6:10)"
     id="path10"
     style="fill:#26bd56;stroke-width:0.430399;fill-opacity:1" />
  <defs
     id="defs29">
    <linearGradient
       id="linearGradient35576"
       inkscape:swatch="solid">
      <stop
         style="stop-color:#ffffff;stop-opacity:1;"
         offset="0"
         id="stop35574" />
    </linearGradient>
    <linearGradient
       id="linearGradient33057"
       inkscape:swatch="solid">
      <stop
         style="stop-color:#ffffff;stop-opacity:1;"
         offset="0"
         id="stop33055" />
    </linearGradient>
    <radialGradient
       id="paint0_diamond_6:10"
       cx="0"
       cy="0"
       r="1"
       gradientUnits="userSpaceOnUse"
       gradientTransform="matrix(0,78,-321.454,0,317,121)">
      <stop
         stop-color="#00FFE0"
         id="stop12" />
      <stop
         offset="0.0001"
         stop-color="#00FFE0"
         id="stop14" />
      <stop
         offset="1"
         stop-color="#26BD00"
         stop-opacity="0.74"
         id="stop16" />
    </radialGradient>
    <linearGradient
       id="paint1_linear_6:10"
       x1="51.9053"
       y1="25.315901"
       x2="120.73"
       y2="166.427"
       gradientUnits="userSpaceOnUse"
       gradientTransform="matrix(0.43039921,0,0,0.43039921,118.25292,106.45728)">
      <stop
         stop-color="#26BD00"
         id="stop19" />
      <stop
         offset="1"
         stop-color="#29DBD0"
         stop-opacity="0.64"
         id="stop21" />
    </linearGradient>
    <radialGradient
       id="paint2_diamond_6:10"
       cx="0"
       cy="0"
       r="1"
       gradientUnits="userSpaceOnUse"
       gradientTransform="matrix(0,19.367965,-19.367965,0,158.71045,153.80119)">
      <stop
         stop-color="#00FFE0"
         id="stop24" />
      <stop
         offset="1"
         stop-color="#56935C"
         stop-opacity="0.67"
         id="stop26" />
    </radialGradient>
  </defs>
</svg>
